<svg xmlns="http://www.w3.org/2000/svg" viewBox="0 0 29.04 29.83"><g id="Layer_2" data-name="Layer 2"><g id="Layer_1-2" data-name="Layer 1"><path d="M24.81,4.52c.08,0,0,0-.09,0Z"/><path d="M24.52,4.32h0L29,1.47,17.22,0,18,3.64a3.74,3.74,0,0,0-1.08.23h0s0,0,0,0h0L16.79,4a2.56,2.56,0,0,0-.45,0c.11,0,.11,0,.12.07s0,.1-.16.1.08-.06,0-.08c.05,0,0,0-.05.07S16,4.07,16,4h.1s-.16,0-.06-.08L15.89,4c-.1,0,0-.08,0-.09-.23.07-.33.2-.54.28,0,0,0-.13,0-.1-.18,0-.33.19-.52.24,0,0,.09,0,.15-.07l-.82.16-.39.07-.41.06-.1.14-.16,0a6,6,0,0,0-1.49.56c-.16.07-.13,0-.22,0-.35.13-.39.28-.72.45,0,0,.08-.17-.07-.11s0,.09-.11.11l0,0c-.11,0-.17.08-.34.13a2.08,2.08,0,0,0-.74.59c-.26.12,0-.12-.08-.11.2-.06.11-.09.14-.14s-.2.15-.28.11a.83.83,0,0,0-.3.23c.05-.06.13-.06.08,0s-.38.21-.41.12A20,20,0,0,0,6.66,7.8c-.08.11.09,0,0,0s-.14.07-.23.2l0-.08a2.53,2.53,0,0,0-.45.53c0-.07-.17.07,0-.07-.08.08-.35-.05-.38,0l.25.11s-.11.11-.09.12a.61.61,0,0,0-.27.1c-.07,0,.06-.13.13-.19s-.27.15-.24,0c-.13.14.06,0,0,.13l-.14.1.12-.06c-.08.12-.07.2-.24.29l-.07.21c-.07-.05-.11.08-.2.14V9.31a.78.78,0,0,1-.22.15c0-.1.1-.07.07-.14l-.12.08s0,.13.09.07a.79.79,0,0,1-.27.51c-.16,0,.06-.17,0-.18-.27.23-.14.45-.28.6s-.12.22-.29.42c0-.1-.15.11-.22.11v-.12c0,.08-.09.13-.11.08s-.16.32-.24.49h.07a2,2,0,0,1-.23.43C3,12,3.06,12,3,12.18a.13.13,0,0,1-.19-.06c.06,0,.1-.13.17-.2.11-.26.11-.53.32-.73-.05-.19-.11.16-.23.24v0l0,0c0-.1.12-.24.08-.31-.1.14,0,.19-.13.33s-.22.19-.29.27.09.18-.06.39l0-.14c-.15.25,0,.18-.1.41.06-.07,0,.12.12,0a.87.87,0,0,1-.19.39s0,0,0,0,.08-.25.22-.32l0-.14c.1-.12.17-.09.16,0a.46.46,0,0,1,0-.1c.14.06-.13.13,0,.24l0-.1c.1,0-.05.25-.13.36s-.19.23-.25.21l.07-.2c-.1.07-.09.25-.15.35l0,0h0s0,0-.06.05a1.87,1.87,0,0,1-.15.32l.06,0,0,0c0-.09.13-.18.14-.1s-.19.19-.25.22.09-.19.12-.3-.12.19-.26.37c-.05-.13.11-.24.06-.32-.1.15-.06.23-.16.39,0,0,0-.21,0-.23l-.07.1c.12-.27-.14,0-.06-.23-.08.09,0,.18-.11.29.05,0,.18-.1.15.05l-.1.15c-.07,0,0-.21-.1-.12l0,.17s.08-.06.09,0,0,.2,0,.33-.07.16-.12.17c0,.26-.13.54-.14.78,0-.16-.09,0-.17,0,.05-.17,0-.2-.09-.21s0,.2.08.16c-.1.16,0,.14-.09.27s-.07-.08-.12-.06c-.06.18.09.09,0,.28,0,0,0,0,0,0s-.06.23,0,.27c-.15.08-.09.33-.19.27-.05.28.07,0,.1.05a.7.7,0,0,1-.13.36c0-.06,0-.13,0-.19l-.1,0c-.16.31.12.25,0,.55,0-.17,0-.07-.08-.16s-.09.3,0,.16a2.17,2.17,0,0,1-.1.28,1,1,0,0,0,0,.31.86.86,0,0,1-.18.36,3.08,3.08,0,0,1-.08.53A2,2,0,0,0,.22,19v0c-.05.29.12-.12.08.19-.09-.06-.08.17-.15.27a2.37,2.37,0,0,0,0,.52,2,2,0,0,1,0,.49s0,0,0-.09a4.54,4.54,0,0,0,0,.73H0a3.76,3.76,0,0,0,.1,1.15s0,0-.07-.06a1.26,1.26,0,0,0,.13.66c-.07.25.05.16,0,.48,0,0,0,0,0,0a2,2,0,0,0,0,.42c.13.33.27.38.32.77-.13.06-.08-.23-.19-.21a.37.37,0,0,1,.07.25c-.06-.05,0,0-.09,0s.22.29.21.29,0,0,0-.1.1.37.19.55c0-.06,0-.26,0-.21.05.26.2.3.3.46s-.16-.14-.24-.07-.06.16-.13.08c0,.21.18.33.25.51h0c.09.25.3.47.33.69v-.12s.07.17.15.21,0,.19-.08.13c.18.06.32.52.49.59,0,.07-.08.05-.11,0s-.06-.22-.15-.27c.06.12.07.23,0,.22.14.09.31.37.42.4s0,.2-.05.2c.23.36.1-.28.32.14,0,.23-.19-.14-.07.13l0,0c-.07.28.19.07.3.29-.07.08-.14-.12-.13.07s.31.19.39.4H2.63c.08.12.2.37.27.49s0,0,0,0c.1.24.11.07.15.28l.07,0a.69.69,0,0,0-.2-.4c.12.09,0-.25.12-.23H3A6.83,6.83,0,0,0,2.56,28c-.22-.2-.17-.44-.36-.68-.13,0-.05,0-.18-.27.07.12.09,0,.08-.1A.53.53,0,0,1,2,26.79c0-.06,0-.4-.14-.48s0,0,.09,0-.09-.1-.07-.16h0a5.25,5.25,0,0,1-.17-.6c-.12,0-.12-.22-.19-.31s0-.15,0-.22L1.4,25c-.11-.11,0-.19-.08-.35v.05a1,1,0,0,1,0-.58A3.24,3.24,0,0,1,1,22.66c0-.45,0-.91,0-1.5,0-.08-.06.05-.11,0a2.46,2.46,0,0,1,0-.26c0,.1,0,.09,0,.07l0,.17s0,0,0,0a1.06,1.06,0,0,1,0,.2c0-.11-.12-.13-.09-.28,0,0,0,0,0,.07,0-.12,0-.13,0-.22s0-.08,0-.1l.05-.33A.51.51,0,0,1,.9,20c.08,0,0,.23.08.32l0-.06a.28.28,0,0,0,0-.06H1l0-.18v0S1,20,1,20H1l0-.12c.06.08,0-.11.1-.08.08-.4,0-.52.1-.86,0,.05-.1-.13-.07-.23s.05-.08.07,0V18.5c.14-.16.1-.34.19-.59l0,0a.61.61,0,0,1,0-.35l.05,0c.09-.16-.1-.16,0-.35-.07,0-.13.1-.2.1.08,0,.14-.23.08-.19,0-.2,0-.14.06-.15v-.12c0-.14.1,0,.12,0,0-.15.06-.27.11-.4v.06l.07-.18A.78.78,0,0,1,1.83,16l0,.14c.08-.09,0-.07,0-.1,0-.19.09-.2.17-.27,0-.31.35-.48.32-.76h.06c0-.36.34-.63.3-1,.35-.28,0-.32.29-.57H3l.23-.41.26-.39.12-.2.14-.19L4,11.9l1.13-1.41,0,0a18.54,18.54,0,0,1,4.37-3.3c.14-.11,0-.14.12-.24s.19-.1.21-.06,0,.08,0,.12a3,3,0,0,0,.59-.3h-.17a.72.72,0,0,1,.23-.12s.1.07.06.1c.29-.3.3-.07.58-.26,0-.14.34-.4.56-.6l.15,0c-.18.07,0,.08-.18.17.19,0,.35-.15.53-.2-.05,0-.05-.06,0-.1s.15,0,.28,0l-.11.08c.1,0,.14-.07.22-.1s.23,0,.22,0c.14-.12.21-.1.38-.21-.21,0,0-.08,0-.12l-.21.09c.31-.07-.09,0,0,.12-.15,0,.14-.21-.09-.11.27-.14.34-.13.61-.29-.17.07,0-.06-.09-.06.23-.07.07,0,.16,0s.18,0,.27-.11,0,.08.1.09c0,.08-.57.09-.46.27-.1,0-.2.14-.34.19a1.28,1.28,0,0,0,.48-.11l0-.11c.12,0,.12-.12.21-.14s.06.07.16,0-.07,0-.07,0c.18-.07.18-.15.4-.23a2.94,2.94,0,0,1-.42,0c0-.09.11,0,.21-.08s0,0,0,0l.1-.07c.23,0,0,.12.2.11s.16-.08.27-.07l0,0h.05c.12,0,.25-.07.27-.13s.1,0,.13-.06.21-.15.33-.07h0c.16,0,.28,0,.25,0l.25,0v.08c.22-.06.19-.1.32-.21a1.39,1.39,0,0,0,.54-.12h.09l-.1,0c.18,0,.15-.06.26-.08H17a.08.08,0,0,1-.06,0l0,0c.15.06.2-.08.36-.07l-.06,0c.09,0,.23.1.25,0s0,0,.08,0h0s.07-.06.07,0h.22l.14,0,0,0h0l.73,3.61,5.5-3.46h.06l0,0h0l.17-.11ZM5.8,8.67h0ZM16.21,4.56c-.07,0-.14,0-.17,0s.53,0,.43-.06c.19-.07.14,0,.15,0-.19,0-.29,0-.46,0A.08.08,0,0,1,16.21,4.56Zm1.87-.3h0v0Z"/><path d="M12.25,5.8l-.1,0h0Z"/><path d="M2.77,12.48v0h0v0Z"/><path d="M16.94,4.35h0Z"/><path d="M.32,24.18a.43.43,0,0,1,0-.16c-.11-.1,0,.26-.06.1a.5.5,0,0,0,0,.13l.06-.09C.32,24.05.36,24.24.32,24.18Z"/><path d="M2.27,13.05l0,0s0,0-.11.05.15,0,.14.18a.16.16,0,0,1,.05-.09C2.3,13.2,2.28,13.12,2.27,13.05Z"/><path d="M2.37,13.17h0a.1.1,0,0,1,0-.05A.19.19,0,0,0,2.37,13.17Z"/><path d="M3.05,11.87l.05,0a.08.08,0,0,1,0,0Z"/><path d="M1.79,16.32c-.07-.07,0,0-.08.11l0,.1A.61.61,0,0,0,1.79,16.32Z"/><polygon points="0.31 24.26 0.32 24.26 0.31 24.25 0.31 24.26"/><path d="M2.84,12.4l-.07.08c0,.07-.13.16-.11.22Z"/><path d="M16.1,4s-.18,0-.06,0S16.17,4,16.1,4Z"/><path d="M16.75,4.53a1.08,1.08,0,0,0-.39.12C16.48,4.61,16.78,4.58,16.75,4.53Z"/><path d="M12.32,5.92c.07,0,.19-.08.2-.13a2,2,0,0,0-.28.19S12.34,6,12.32,5.92Z"/><path d="M11.4,6.26s.11,0,.08-.08S11.36,6.26,11.4,6.26Z"/><path d="M5.11,9C5,9,5,9.07,5.05,9.09S5.07,9,5.11,9Z"/><polygon points="4.94 9.18 4.86 9.19 4.97 9.19 4.94 9.18"/><path d="M4.43,9.57s0,.07,0,0A.43.43,0,0,0,4.43,9.57Z"/><path d="M4.47,9.51l0,.05s0,0,0,0Z"/><path d="M4.31,9.65l0,.11.15,0C4.49,9.6,4.28,9.81,4.31,9.65Z"/><path d="M3.69,10.79c.28-.26,0-.27.24-.5-.16.09,0-.11,0-.17s-.12.3-.24.29C3.55,10.72,3.91,10.45,3.69,10.79Z"/><path d="M4.14,10.18s-.13.07-.13.13S4.14,10.27,4.14,10.18Z"/><polygon points="3.56 10.68 3.47 10.75 3.47 10.79 3.56 10.68"/><path d="M3.32,10.88s-.11.17,0,.12Z"/><path d="M3,11.46l0,0s-.11,0-.05-.07C2.83,11.5,2.89,11.65,3,11.46Z"/><path d="M2.4,12.54a.45.45,0,0,0,0,.08l0,.09,0,0C2.41,12.61,2.44,12.54,2.4,12.54Z"/><path d="M2.67,12.8c.1,0,.08-.15.16-.24A1.24,1.24,0,0,0,2.67,12.8Z"/><path d="M2.18,12.81c0-.06,0-.12.07-.16S2.15,12.77,2.18,12.81Z"/><path d="M2,13.44c.07-.2,0-.36.14-.4l0-.22c-.1.14,0,.16,0,.26s0,0-.07,0a.43.43,0,0,0-.15.31S2,13.37,2,13.44Z"/><path d="M2.49,12.84l-.09.07c.05,0,0,.08,0,.14S2.47,12.9,2.49,12.84Z"/><path d="M1.59,14.23l0-.08,0,.11,0,.11,0-.07Z"/><polygon points="1.49 14.27 1.47 14.45 1.52 14.27 1.49 14.27"/><polygon points="1.44 14.32 1.39 14.49 1.41 14.46 1.44 14.32"/><path d="M1.28,14.75a.29.29,0,0,1-.09.19l.05,0C1.25,14.85,1.35,14.76,1.28,14.75Z"/><path d="M1.68,16.87s0-.06,0-.07,0,0-.08,0Z"/><path d="M1.56,17.21c.06-.18,0-.23,0-.39-.05.06,0,.17-.06.25v0Z"/><path d="M.94,20.31c-.06,0-.06,0-.08-.1a4.21,4.21,0,0,1,0,.51s.09.11.08,0l0-.22,0,0C1,20.42.9,20.47.94,20.31Z"/><path d="M2.6,29s0,0-.05.06S2.58,28.94,2.6,29Z"/></g></g></svg>